<svg width="73" height="73" viewBox="0 0 73 73" fill="none" xmlns="http://www.w3.org/2000/svg">
<circle cx="36.5" cy="36.5" r="35" fill="#0D1426" stroke="#16FFE2" stroke-width="3"/>
<g filter="url(#filter0_i)">
<path d="M47.9202 28.4464C52.4898 29.9056 54.7746 33.6496 54.7746 39.6784C54.7746 44.7088 52.6242 49.6432 48.3234 54.4816C44.061 59.2816 38.1858 61.6816 30.6978 61.6816C24.8226 61.6816 21.0018 59.9728 19.2354 56.5552C18.621 55.4032 18.3138 54.232 18.3138 53.0416C18.3138 51.8128 18.621 50.5648 19.2354 49.2976C20.3874 46.84 22.0578 45.6112 24.2466 45.6112C24.4386 45.6112 24.573 45.7264 24.6498 45.9568C24.7266 46.1488 24.7074 46.36 24.5922 46.5904C24.5154 46.8208 24.381 46.936 24.189 46.936C22.8834 46.936 21.789 47.7808 20.9058 49.4704C20.2914 50.584 19.9842 51.64 19.9842 52.6384C19.9842 53.6368 20.2146 54.5968 20.6754 55.5184C22.0194 58.1296 25.0146 59.4352 29.661 59.4352C35.4978 59.4352 40.5666 56.9776 44.8674 52.0624C48.2082 48.2992 50.2626 44.1712 51.0306 39.6784C51.2226 38.6032 51.3186 37.6048 51.3186 36.6832C51.3186 34.0336 50.5314 32.056 48.957 30.7504C48.1122 30.0592 47.0754 29.656 45.8466 29.5408C43.773 30.424 41.5458 30.8656 39.165 30.8656C38.8962 30.8656 38.7618 30.616 38.7618 30.1168C38.7618 29.5792 38.8962 29.3104 39.165 29.3104C43.0434 29.3104 46.4418 27.4864 49.3602 23.8384C51.5106 21.112 52.6626 18.4432 52.8162 15.832C52.7394 13.528 51.837 12.3184 50.109 12.2032C48.2274 12.2032 46.2114 13.5472 44.061 16.2352C41.9106 18.9232 39.9714 22.1872 38.2434 26.0272C36.5154 29.8672 34.9218 33.8032 33.4626 37.8352C32.0418 41.8288 30.9282 45.2656 30.1218 48.1456C29.3154 50.9872 28.9122 52.6576 28.9122 53.1568C28.9122 53.656 28.6434 53.9056 28.1058 53.9056C26.9538 53.9056 26.3778 52.3696 26.3778 49.2976C26.3778 41.8864 27.2034 34.6864 28.8546 27.6976C30.5442 20.7088 32.4066 16.0432 34.4418 13.7008C28.9506 14.4688 24.4962 16.408 21.0786 19.5184C19.1202 21.2464 18.141 23.128 18.141 25.1632C18.141 26.1616 18.525 26.6608 19.293 26.6608C19.1394 27.1984 18.717 27.4672 18.0258 27.4672C17.3346 27.4672 16.7202 27.1984 16.1826 26.6608C15.6834 26.1232 15.4338 25.3744 15.4338 24.4144C15.4338 22.1488 16.797 20.056 19.5234 18.136C22.2882 16.1776 25.2642 14.7376 28.4514 13.816C31.6386 12.856 34.3458 12.376 36.573 12.376C37.1874 12.376 37.4946 12.6832 37.4946 13.2976C34.9986 19.096 32.733 27.5632 30.6978 38.6992H31.1586C33.3858 31.7488 36.0162 25.528 39.0498 20.0368C40.6626 17.08 42.4482 14.7568 44.4066 13.0672C46.365 11.3392 48.3618 10.4752 50.397 10.4752C53.6226 10.4752 55.5426 11.7808 56.157 14.392C56.2722 14.9296 56.3298 15.5056 56.3298 16.12C56.3298 18.1936 55.5234 20.4208 53.9106 22.8016C52.3362 25.144 50.3394 27.0256 47.9202 28.4464Z" fill="#16FFE2"/>
</g>
<defs>
<filter id="filter0_i" x="15.4338" y="10.4752" width="40.896" height="53.2064" filterUnits="userSpaceOnUse" color-interpolation-filters="sRGB">
<feFlood flood-opacity="0" result="BackgroundImageFix"/>
<feBlend mode="normal" in="SourceGraphic" in2="BackgroundImageFix" result="shape"/>
<feColorMatrix in="SourceAlpha" type="matrix" values="0 0 0 0 0 0 0 0 0 0 0 0 0 0 0 0 0 0 127 0" result="hardAlpha"/>
<feOffset dy="2"/>
<feGaussianBlur stdDeviation="1"/>
<feComposite in2="hardAlpha" operator="arithmetic" k2="-1" k3="1"/>
<feColorMatrix type="matrix" values="0 0 0 0 0 0 0 0 0 0 0 0 0 0 0 0 0 0 0.1 0"/>
<feBlend mode="normal" in2="shape" result="effect1_innerShadow"/>
</filter>
</defs>
</svg>
