<svg width="80" height="70" viewBox="0 0 80 70" fill="none" xmlns="http://www.w3.org/2000/svg">
<mask id="path-1-inside-1" fill="white">
<path fill-rule="evenodd" clip-rule="evenodd" d="M16.7442 0H63.2558V0.358982L80 35L63.2558 69.641V70H16.7442V69.641L0 35L16.7442 0.358978V0Z"/>
</mask>
<path fill-rule="evenodd" clip-rule="evenodd" d="M16.7442 0H63.2558V0.358982L80 35L63.2558 69.641V70H16.7442V69.641L0 35L16.7442 0.358978V0Z" fill="#002040"/>
<path d="M63.2558 0H68.2558V-5H63.2558V0ZM16.7442 0V-5H11.7442V0H16.7442ZM63.2558 0.358982H58.2558V1.50402L58.7541 2.53493L63.2558 0.358982ZM80 35L84.5017 37.176L85.5535 35L84.5017 32.824L80 35ZM63.2558 69.641L58.7541 67.4651L58.2558 68.496V69.641H63.2558ZM63.2558 70V75H68.2558V70H63.2558ZM16.7442 70H11.7442V75H16.7442V70ZM16.7442 69.641H21.7442V68.496L21.2459 67.4651L16.7442 69.641ZM0 35L-4.50169 32.824L-5.55347 35L-4.50169 37.176L0 35ZM16.7442 0.358978L21.2459 2.53493L21.7442 1.50401V0.358978H16.7442ZM63.2558 -5H16.7442V5H63.2558V-5ZM68.2558 0.358982V0H58.2558V0.358982H68.2558ZM58.7541 2.53493L75.4983 37.176L84.5017 32.824L67.7575 -1.81697L58.7541 2.53493ZM75.4983 32.824L58.7541 67.4651L67.7575 71.817L84.5017 37.176L75.4983 32.824ZM68.2558 70V69.641H58.2558V70H68.2558ZM16.7442 75H63.2558V65H16.7442V75ZM11.7442 69.641V70H21.7442V69.641H11.7442ZM-4.50169 37.176L12.2425 71.817L21.2459 67.4651L4.50169 32.824L-4.50169 37.176ZM12.2425 -1.81697L-4.50169 32.824L4.50169 37.176L21.2459 2.53493L12.2425 -1.81697ZM11.7442 0V0.358978H21.7442V0H11.7442Z" fill="#16FFE2" mask="url(#path-1-inside-1)"/>
<g filter="url(#filter0_i)">
<path d="M25.9782 18.9C28.0582 16.66 30.7582 14.92 34.0782 13.68C37.4382 12.4 41.2182 11.76 45.4182 11.76C49.6182 11.76 52.7182 12.46 54.7182 13.86C56.7182 15.26 57.7182 16.98 57.7182 19.02C57.7182 21.06 56.9982 23.24 55.5582 25.56C54.1182 27.84 52.3382 29.7 50.2182 31.14C53.0582 31.62 55.1582 32.58 56.5182 34.02C57.8782 35.42 58.5582 37.3 58.5582 39.66C58.5582 42.02 57.5782 44.6 55.6182 47.4C53.6582 50.16 51.0982 52.46 47.9382 54.3C44.7782 56.1 41.6182 57 38.4582 57H25.3782L25.1382 56.52C28.6182 55.8 30.9182 52.42 32.0382 46.38C32.7582 42.62 33.4582 38.56 34.1382 34.2C34.8182 29.84 35.3382 26.66 35.6982 24.66C36.4982 19.74 37.4782 16.5 38.6382 14.94L38.6982 14.88C34.2982 14.96 30.6982 16.5 27.8982 19.5C25.0982 22.5 23.6982 26.92 23.6982 32.76L19.7982 36.12C19.7982 29.16 21.8582 23.42 25.9782 18.9ZM47.0982 30.66C48.7382 30.66 50.1382 29.82 51.2982 28.14C52.4582 26.46 53.0382 24.56 53.0382 22.44C53.0382 20.28 52.3182 18.46 50.8782 16.98C49.4782 15.46 47.3182 14.7 44.3982 14.7L41.9382 14.82C41.6182 15.46 41.3582 16.32 41.1582 17.4C38.4782 33.64 36.8982 43.04 36.4182 45.6C35.9382 48.16 34.4382 50.66 31.9182 53.1L32.1582 53.58H41.0382C45.1582 53.58 48.3982 52.48 50.7582 50.28C53.1582 48.04 54.3582 45.56 54.3582 42.84C54.3582 40.08 53.4382 37.82 51.5982 36.06C49.7982 34.26 47.1982 33.32 43.7982 33.24H42.4782L44.2182 31.02L44.8782 30.24C45.5582 30.52 46.2982 30.66 47.0982 30.66Z" fill="#16FFE2"/>
</g>
<defs>
<filter id="filter0_i" x="19.7982" y="11.76" width="38.76" height="47.24" filterUnits="userSpaceOnUse" color-interpolation-filters="sRGB">
<feFlood flood-opacity="0" result="BackgroundImageFix"/>
<feBlend mode="normal" in="SourceGraphic" in2="BackgroundImageFix" result="shape"/>
<feColorMatrix in="SourceAlpha" type="matrix" values="0 0 0 0 0 0 0 0 0 0 0 0 0 0 0 0 0 0 127 0" result="hardAlpha"/>
<feOffset dy="2"/>
<feGaussianBlur stdDeviation="1"/>
<feComposite in2="hardAlpha" operator="arithmetic" k2="-1" k3="1"/>
<feColorMatrix type="matrix" values="0 0 0 0 0 0 0 0 0 0 0 0 0 0 0 0 0 0 0.1 0"/>
<feBlend mode="normal" in2="shape" result="effect1_innerShadow"/>
</filter>
</defs>
</svg>
