<svg width="80" height="67" viewBox="0 0 80 67" fill="none" xmlns="http://www.w3.org/2000/svg">
<path fill-rule="evenodd" clip-rule="evenodd" d="M23.007 17C23.2717 7.56624 31.0022 0 40.5 0C49.9978 0 57.7283 7.56624 57.993 17H75C77.7614 17 80 19.2386 80 22V27.3857L48 39.5962V37.5V35.5H46H34.5H32.5V37.5V39.6543L0 27.9543V22C0 19.2386 2.23858 17 5 17H23.007ZM0 32.2057V62C0 64.7614 2.23858 67 5 67H75C77.7614 67 80 64.7614 80 62V31.667L48 43.8775V51V53H46H34.5H32.5V51V43.9057L0 32.2057ZM52.5 17.1093C52.0273 10.8951 46.8353 6 40.5 6C34.1647 6 28.9727 10.8951 28.5 17.1093H52.5ZM36.5 42.5V39.5H44V42.5V49H36.5V42.5Z" fill="#000000"/>
</svg>
